<svg height="464pt" viewBox="-28 0 464 464" width="464pt" xmlns="http://www.w3.org/2000/svg"><path d="m192 347.414062h16v36.585938h-16zm0 0" fill="#66342e"/><path d="m158.855469 388.121094-17.335938-2.210938 27.625-46.03125 13.710938 8.242188zm0 0" fill="#66342e"/><path d="m241.144531 388.121094-24-40 13.710938-8.242188 28.945312 48.242188zm0 0" fill="#66342e"/><path d="m152 176c-24.957031.917969-48.292969 12.585938-64 32-24 32-16 112-16 112l32-8c4.304688 8.640625 9.679688 16.703125 16 24l32-24zm0 0" fill="#f9bb4b"/><path d="m248 176c24.957031.917969 48.292969 12.585938 64 32 24 32 16 112 16 112l-32-8c-4.304688 8.640625-9.679688 16.703125-16 24l-32-24zm0 0" fill="#f9bb4b"/><path d="m280 256c0-53.019531-35.816406-96-80-96s-80 42.980469-80 96 35.816406 96 80 96 80-42.980469 80-96zm0 0" fill="#ad6327"/><path d="m296 96c0 53.019531-42.980469 96-96 96s-96-42.980469-96-96 42.980469-96 96-96 96 42.980469 96 96zm0 0" fill="#d3843d"/><path d="m200 96c0 26.507812-21.492188 48-48 48s-48-21.492188-48-48 21.492188-48 48-48 48 21.492188 48 48zm0 0" fill="#f9bb4b"/><path d="m296 96c0 26.507812-21.492188 48-48 48s-48-21.492188-48-48 21.492188-48 48-48 48 21.492188 48 48zm0 0" fill="#f9bb4b"/><path d="m160 112c-8.835938 0-16-7.164062-16-16s7.164062-16 16-16 16 7.164062 16 16-7.164062 16-16 16zm0-16" fill="#394d5c"/><path d="m240 112c-8.835938 0-16-7.164062-16-16s7.164062-16 16-16 16 7.164062 16 16-7.164062 16-16 16zm0-16" fill="#394d5c"/><path d="m202.792969 112h-5.601563c-4.832031 13.636719-15.554687 24.371094-29.191406 29.207031v2.792969l32 32 32-32v-2.792969c-13.640625-4.832031-24.375-15.566406-29.207031-29.207031zm0 0" fill="#5a6470"/><path d="m200 0h-112s16 72 112 0zm0 0" fill="#5a6470"/><path d="m200 0h112s-16 72-112 0zm0 0" fill="#7d8d9c"/><g fill="#f1c056"><path d="m178.023438 261.3125c-2.222657-3.058594-5.664063-4.996094-9.429688-5.3125-4.0625.445312-7.828125 2.328125-10.617188 5.3125l-11.953124-10.625c5.8125-6.410156 13.929687-10.25 22.570312-10.6875 8.355469.222656 16.1875 4.136719 21.382812 10.6875zm0 0"/><path d="m242.023438 261.3125c-2.222657-3.058594-5.664063-4.996094-9.429688-5.3125-4.0625.445312-7.828125 2.328125-10.617188 5.3125l-11.953124-10.625c5.8125-6.410156 13.929687-10.25 22.570312-10.6875 8.355469.222656 16.1875 4.136719 21.382812 10.6875zm0 0"/><path d="m210.023438 285.3125c-2.222657-3.058594-5.664063-4.996094-9.429688-5.3125-4.0625.445312-7.828125 2.328125-10.617188 5.3125l-11.953124-10.625c5.8125-6.410156 13.929687-10.25 22.570312-10.6875 8.355469.222656 16.1875 4.136719 21.382812 10.6875zm0 0"/><path d="m186.023438 309.3125c-2.222657-3.058594-5.664063-4.996094-9.429688-5.3125-4.0625.445312-7.828125 2.328125-10.617188 5.3125l-11.953124-10.625c5.8125-6.410156 13.929687-10.25 22.570312-10.6875 8.355469.222656 16.1875 4.136719 21.382812 10.6875zm0 0"/><path d="m234.023438 309.3125c-2.222657-3.058594-5.664063-4.996094-9.429688-5.3125-4.0625.445312-7.828125 2.328125-10.617188 5.3125l-11.953124-10.625c5.8125-6.410156 13.929687-10.25 22.570312-10.6875 8.355469.222656 16.1875 4.136719 21.382812 10.6875zm0 0"/></g><path d="m392 464h-384v-80h384zm0 0" fill="#65c879"/><path d="m360 464h-64v-80h64zm0 0" fill="#cdeef6"/><path d="m104 464h-64v-80h64zm0 0" fill="#cdeef6"/><path d="m168 384v80h-32v-80zm0 0" fill="#eed98f"/><path d="m72 48c-13.253906 0-24-10.746094-24-24 0-4.417969-3.582031-8-8-8s-8 3.582031-8 8c0 13.253906-10.746094 24-24 24-4.417969 0-8 3.582031-8 8s3.582031 8 8 8c13.253906 0 24 10.746094 24 24 0 4.417969 3.582031 8 8 8s8-3.582031 8-8c0-13.253906 10.746094-24 24-24 4.417969 0 8-3.582031 8-8s-3.582031-8-8-8zm-32 16.246094c-2.332031-3.136719-5.109375-5.914063-8.246094-8.246094 3.136719-2.332031 5.914063-5.109375 8.246094-8.246094 2.332031 3.136719 5.109375 5.914063 8.246094 8.246094-3.136719 2.332031-5.914063 5.109375-8.246094 8.246094zm0 0" fill="#f1c056"/><path d="m400 152c-13.253906 0-24-10.746094-24-24 0-4.417969-3.582031-8-8-8s-8 3.582031-8 8c0 13.253906-10.746094 24-24 24-4.417969 0-8 3.582031-8 8s3.582031 8 8 8c13.253906 0 24 10.746094 24 24 0 4.417969 3.582031 8 8 8s8-3.582031 8-8c0-13.253906 10.746094-24 24-24 4.417969 0 8-3.582031 8-8s-3.582031-8-8-8zm-32 16.246094c-2.332031-3.136719-5.109375-5.914063-8.246094-8.246094 3.136719-2.332031 5.914063-5.109375 8.246094-8.246094 2.332031 3.136719 5.109375 5.914063 8.246094 8.246094-3.136719 2.332031-5.914063 5.109375-8.246094 8.246094zm0 0" fill="#f1c056"/></svg>